<svg width="390" height="844" viewBox="0 0 390 844" fill="none" xmlns="http://www.w3.org/2000/svg">
<g filter="url(#filter0_d_2_17)">
<g filter="url(#filter1_f_2_17)">
<path d="M787.996 89.1246C787.996 577.828 554.961 974 267.496 974C-19.9678 974 -253.004 577.828 -253.004 89.1246C-253.004 -399.578 -19.9678 -43.8245 267.496 -43.8245C554.961 -43.8245 444.257 -1259.98 787.996 89.1246Z" fill="url(#paint0_angular_2_17)"/>
</g>
<path d="M613.996 135.307C613.996 502.959 440.283 801 225.996 801C11.7099 801 -162.004 502.959 -162.004 135.307C-17.2197 -531.903 11.7099 6.41376 225.996 6.41376C440.283 6.41376 562.437 -625.919 613.996 135.307Z" fill="url(#paint1_angular_2_17)" fill-opacity="0.3"/>
<path d="M658.097 510.958C541.509 726.372 645.903 533.488 56.4982 689.653C-93.8152 347.158 -239.487 303.677 -122.9 88.2633C-6.31199 -127.151 263.033 -207.155 478.699 -90.431C694.365 26.293 774.684 295.544 658.097 510.958Z" fill="url(#paint2_angular_2_17)" fill-opacity="0.3"/>
<g filter="url(#filter2_f_2_17)">
<ellipse cx="384.996" cy="48" rx="132" ry="59" fill="#A7AEF9"/>
</g>
</g>
<defs>
<filter id="filter0_d_2_17" x="-257.004" y="-547" width="1049" height="1529" filterUnits="userSpaceOnUse" color-interpolation-filters="sRGB">
<feFlood flood-opacity="0" result="BackgroundImageFix"/>
<feColorMatrix in="SourceAlpha" type="matrix" values="0 0 0 0 0 0 0 0 0 0 0 0 0 0 0 0 0 0 127 0" result="hardAlpha"/>
<feOffset dy="4"/>
<feGaussianBlur stdDeviation="2"/>
<feComposite in2="hardAlpha" operator="out"/>
<feColorMatrix type="matrix" values="0 0 0 0 0 0 0 0 0 0 0 0 0 0 0 0 0 0 0.25 0"/>
<feBlend mode="normal" in2="BackgroundImageFix" result="effect1_dropShadow_2_17"/>
<feBlend mode="normal" in="SourceGraphic" in2="effect1_dropShadow_2_17" result="shape"/>
</filter>
<filter id="filter1_f_2_17" x="-453.004" y="-747" width="1441" height="1921" filterUnits="userSpaceOnUse" color-interpolation-filters="sRGB">
<feFlood flood-opacity="0" result="BackgroundImageFix"/>
<feBlend mode="normal" in="SourceGraphic" in2="BackgroundImageFix" result="shape"/>
<feGaussianBlur stdDeviation="100" result="effect1_foregroundBlur_2_17"/>
</filter>
<filter id="filter2_f_2_17" x="72.9964" y="-191" width="624" height="478" filterUnits="userSpaceOnUse" color-interpolation-filters="sRGB">
<feFlood flood-opacity="0" result="BackgroundImageFix"/>
<feBlend mode="normal" in="SourceGraphic" in2="BackgroundImageFix" result="shape"/>
<feGaussianBlur stdDeviation="90" result="effect1_foregroundBlur_2_17"/>
</filter>
<radialGradient id="paint0_angular_2_17" cx="0" cy="0" r="1" gradientUnits="userSpaceOnUse" gradientTransform="translate(267.496 213.5) rotate(-54.445) scale(575.251 393.713)">
<stop offset="0.190696" stop-color="#F372FF"/>
<stop offset="0.323018" stop-color="#F5C9D9"/>
<stop offset="0.375464" stop-color="#8359E3"/>
<stop offset="0.561318" stop-color="#97E1D4"/>
</radialGradient>
<radialGradient id="paint1_angular_2_17" cx="0" cy="0" r="1" gradientUnits="userSpaceOnUse" gradientTransform="translate(225.996 280.5) rotate(90) scale(520.5 388)">
<stop stop-color="#A7AEF9"/>
<stop offset="0.322917" stop-color="#DDCCF8"/>
<stop offset="0.65625" stop-color="#F5C9D9"/>
<stop offset="1" stop-color="#CEBBFA"/>
</radialGradient>
<radialGradient id="paint2_angular_2_17" cx="0" cy="0" r="1" gradientUnits="userSpaceOnUse" gradientTransform="translate(267.599 299.611) rotate(118.423) scale(443.504 444.023)">
<stop stop-color="#A7AEF9"/>
<stop offset="0.322917" stop-color="#DDCCF8"/>
<stop offset="0.65625" stop-color="#F5C9D9"/>
<stop offset="1" stop-color="#CEBBFA"/>
</radialGradient>
</defs>
</svg>
