<svg width="20" height="20" viewBox="0 0 20 20" fill="none" xmlns="http://www.w3.org/2000/svg">
<path d="M18.2891 7.64916C18.2368 7.49488 18.1404 7.35932 18.0118 7.25921C17.8833 7.1591 17.7282 7.09883 17.5658 7.08583L12.815 6.70833L10.7591 2.1575C10.6937 2.01092 10.5872 1.88643 10.4525 1.79904C10.3179 1.71166 10.1608 1.66511 10.0003 1.66502C9.83972 1.66494 9.68259 1.71131 9.54784 1.79855C9.41308 1.88579 9.30645 2.01016 9.24081 2.15666L7.18498 6.70833L2.43415 7.08583C2.27453 7.09847 2.12193 7.15684 1.99461 7.25394C1.86729 7.35104 1.77064 7.48276 1.71623 7.63335C1.66181 7.78394 1.65193 7.94702 1.68777 8.10308C1.72361 8.25914 1.80365 8.40157 1.91831 8.51333L5.42915 11.9358L4.18748 17.3125C4.14978 17.4752 4.16186 17.6456 4.22216 17.8014C4.28247 17.9572 4.3882 18.0912 4.52565 18.1862C4.6631 18.2811 4.82591 18.3326 4.99297 18.3339C5.16002 18.3351 5.3236 18.2862 5.46248 18.1933L9.99998 15.1683L14.5375 18.1933C14.6794 18.2876 14.8468 18.3361 15.0172 18.3324C15.1875 18.3286 15.3526 18.2728 15.4903 18.1724C15.628 18.0721 15.7316 17.9319 15.7873 17.7709C15.8429 17.6099 15.848 17.4356 15.8016 17.2717L14.2775 11.9383L18.0575 8.53666C18.305 8.31333 18.3958 7.965 18.2891 7.64916Z" fill="#E6BB66"/>
</svg>
