<svg width="20" height="20" viewBox="0 0 20 20" fill="none" xmlns="http://www.w3.org/2000/svg">
<g clip-path="url(#clip0_2_264)">
<path d="M8.21662 15C8.10235 14.9996 7.98939 14.9758 7.88473 14.9299C7.78008 14.884 7.68598 14.8171 7.60828 14.7333L3.55828 10.425C3.40689 10.2637 3.32579 10.0488 3.33282 9.82765C3.33985 9.60652 3.43444 9.39723 3.59578 9.24584C3.75712 9.09444 3.972 9.01334 4.19313 9.02037C4.41427 9.0274 4.62356 9.122 4.77495 9.28334L8.20828 12.9417L15.2166 5.275C15.2877 5.18644 15.3762 5.11335 15.4766 5.06022C15.577 5.0071 15.6872 4.97505 15.8004 4.96607C15.9137 4.95708 16.0275 4.97134 16.1351 5.00796C16.2426 5.04458 16.3415 5.1028 16.4257 5.17904C16.5099 5.25528 16.5776 5.34792 16.6247 5.45129C16.6718 5.55465 16.6973 5.66655 16.6995 5.78012C16.7018 5.89368 16.6808 6.00651 16.6379 6.11168C16.595 6.21684 16.531 6.31212 16.45 6.39167L8.83328 14.725C8.75632 14.8103 8.66255 14.8788 8.55786 14.9261C8.45317 14.9734 8.33983 14.9986 8.22495 15H8.21662Z" fill="#E27BC1"/>
</g>
<defs>
<clipPath id="clip0_2_264">
<rect width="20" height="20" fill="white"/>
</clipPath>
</defs>
</svg>
