<svg width="24" height="24" viewBox="0 0 24 24" fill="none" xmlns="http://www.w3.org/2000/svg">
<path d="M16.9795 4H7.00977C5.34845 4.0022 4.0022 5.34845 4 7.00977V16.9795C4.0022 18.6467 5.35327 19.9978 7.02051 20H9.5H9.50061H14.5H14.5006H16.9902C18.6516 19.9978 19.9978 18.6516 20 16.9902V7.02051C19.9978 5.35327 18.6467 4.0022 16.9795 4ZM10 5H14V9H10V5ZM9 19H7.02051C5.90509 18.9988 5.00116 18.0949 5 16.9795V15H9V19ZM14 19H10V15H14V19ZM19 16.9902C18.9989 18.0997 18.0997 18.9989 16.9902 19H15V15H19V16.9902ZM19 14H5V7.00977C5.0011 5.90027 5.90027 5.0011 7.00977 5H9V9.5C9 9.50018 9 9.50037 9 9.50055C9.00018 9.77655 9.224 10.0002 9.5 10H9.50061H14.5H14.5006H19V14ZM19 9H15V5H16.9795C18.0949 5.00116 18.9988 5.90509 19 7.02051V9Z" fill="white"/>
</svg>
