<svg width="49" height="16" viewBox="0 0 49 16" fill="none" xmlns="http://www.w3.org/2000/svg">
<g clip-path="url(#clip0_2_240)">
<path d="M21.2333 15.7692H17.2639L19.7466 0.280746H23.7158L21.2333 15.7692Z" fill="white"/>
<path d="M35.6225 0.659396C34.8396 0.34601 33.5978 -7.62939e-06 32.0623 -7.62939e-06C28.1425 -7.62939e-06 25.3821 2.10895 25.3652 5.12411C25.3327 7.3487 27.3415 8.58428 28.844 9.32603C30.3797 10.084 30.9017 10.5787 30.9017 11.2543C30.8861 12.2919 29.6608 12.7702 28.518 12.7702C26.9332 12.7702 26.0841 12.5236 24.7937 11.9463L24.271 11.6989L23.7156 15.1757C24.6465 15.6036 26.3617 15.9834 28.1425 16C32.3074 16 35.0189 13.9237 35.051 10.7105C35.0669 8.94738 34.0061 7.59638 31.7192 6.49241C30.3309 5.78374 29.4806 5.30588 29.4806 4.58078C29.4969 3.92159 30.1998 3.24642 31.7669 3.24642C33.0573 3.21335 34.0054 3.5263 34.7237 3.83947L35.0827 4.00394L35.6225 0.659396Z" fill="white"/>
<path d="M40.8981 10.2822C41.2249 9.39238 42.4828 5.94864 42.4828 5.94864C42.4663 5.98171 42.809 5.04242 43.005 4.4658L43.2824 5.80038C43.2824 5.80038 44.0341 9.5078 44.1973 10.2822C43.577 10.2822 41.6821 10.2822 40.8981 10.2822ZM45.7977 0.280746H42.7274C41.7806 0.280746 41.0613 0.560626 40.6528 1.56583L34.7568 15.769H38.9217C38.9217 15.769 39.6074 13.8573 39.7548 13.4456C40.2117 13.4456 44.2633 13.4456 44.8511 13.4456C44.9651 13.9894 45.3247 15.769 45.3247 15.769H49L45.7977 0.280746Z" fill="white"/>
<path d="M13.9486 0.280746L10.0613 10.8424L9.63656 8.70035C8.91788 6.22874 6.66395 3.54338 4.14868 2.20815L7.7093 15.7528H11.9068L18.1459 0.280746H13.9486Z" fill="white"/>
<path d="M6.45162 0.280746H0.0653342L0 0.593695C4.9817 1.87899 8.28099 4.97716 9.63651 8.701L8.24821 1.58269C8.01965 0.593476 7.31725 0.313377 6.45162 0.280746Z" fill="white"/>
</g>
<defs>
<clipPath id="clip0_2_240">
<rect width="49" height="16" fill="white"/>
</clipPath>
</defs>
</svg>
